<svg width="939" height="412" viewBox="0 0 939 412" fill="none" xmlns="http://www.w3.org/2000/svg">
<g opacity="0.1">
<path d="M573.632 189.841C558.065 203.891 543.377 217.478 530.337 231.171C554.028 263.166 578.6 287.682 604.403 306.631C620.522 287.655 634.973 269.659 645.05 253.201C615.502 234.083 591.666 210.607 573.632 189.841Z" fill="url(#paint0_linear_1462_5639)"/>
<path d="M530.339 231.107C516.029 211.798 502.092 189.804 488.378 164.679C480.329 149.843 472.354 137.094 464.305 126.135C458.119 128.968 452.231 132.025 446.79 135.529C434.343 143.357 423.462 159.013 413.549 179.441C416.083 182.647 418.617 186.002 421.151 189.655C443.064 221.042 465.721 252.281 489.198 281.357C500.154 264.806 511.707 251.535 524.079 237.817C526.091 235.581 528.178 233.344 530.339 231.107Z" fill="url(#paint1_linear_1462_5639)"/>
<path d="M615.296 151.495C634.201 168.382 654.484 184.196 676.318 198.196C687.651 182.459 700.596 167.595 712.208 154.702C691.219 144.459 671.029 130.364 651.878 114.14C639.881 127.394 627.614 139.818 615.296 151.495Z" fill="url(#paint2_linear_1462_5639)"/>
<path d="M651.836 114.174C665.698 98.8161 679.039 82.2651 691.337 63.9993C679.338 54.0836 668.754 42.6022 657.798 30.5245C643.488 35.445 628.433 38.0544 611.067 38.2035C606.521 45.7335 601.378 52.3689 595.938 58.3332C613.08 78.0155 631.861 97.2505 651.836 114.174Z" fill="url(#paint3_linear_1462_5639)"/>
<path d="M595.962 58.3645C589.403 50.8345 583.068 43.3045 577.031 35.8491C570.622 34.9545 563.914 33.9107 556.833 32.4942C541.182 29.512 520.76 27.0517 498.028 26.0825C515.543 46.2121 534.027 68.1311 554.001 90.1246C569.131 82.0727 583.515 72.0825 595.962 58.3645Z" fill="url(#paint4_linear_1462_5639)"/>
<path d="M757.166 94.9396C772.892 68.2492 794.954 28.7354 815.077 -8.61623C798.457 -13.3877 780.569 -19.2775 762.607 -27.3293C751.651 -21.5141 740.621 -15.3261 729.515 -8.8399C719.007 18.2978 705.964 42.3789 691.356 63.9996C708.423 78.0903 728.472 89.1989 757.166 94.9396Z" fill="url(#paint5_linear_1462_5639)"/>
<path d="M573.612 189.77C587.028 177.543 601.114 164.944 615.275 151.524C593.214 131.916 572.942 110.967 554.011 90.1659C539.477 97.7704 524.198 103.586 509.292 108.954C527.701 130.723 542.384 150.406 553.266 164.646C558.93 172.101 565.712 180.675 573.612 189.77Z" fill="url(#paint6_linear_1462_5639)"/>
<path d="M347.245 138.795C358.329 114.348 373.686 89.6537 395.023 69.1002C375.563 61.6533 354.951 59.1143 332.573 58.1092C313.889 79.9229 298.899 111.219 287.322 142.954C306.987 139.452 327.133 136.089 347.245 138.795Z" fill="url(#paint7_linear_1462_5639)"/>
<path d="M347.207 138.811C333.493 168.856 326.04 198.603 321.195 219.926C317.096 238.117 313.519 255.115 309.196 272.486C330.661 273.232 351.828 278.674 372.622 296.344C385.292 253.699 398.271 210.903 413.549 179.441C391.935 152.676 369.566 141.942 347.207 138.811Z" fill="url(#paint8_linear_1462_5639)"/>
<path d="M464.328 126.119C478.175 119.771 493.504 114.549 509.275 108.97C489.995 86.1694 466.611 61.2045 439.213 37.9262C422.089 46.3717 407.533 57.0313 395.013 69.1261C419.187 78.3618 441.819 95.2461 464.328 126.119Z" fill="url(#paint9_linear_1462_5639)"/>
<path d="M252.298 276.275C246.41 302.444 237.318 326.227 204.897 365.442C213.691 367.977 223.231 370.214 233.666 372.003C247.528 367.902 262.956 363.951 279.651 360.596C294.259 326.823 302.607 299.238 309.24 272.548C290.458 271.877 271.453 274.784 252.298 276.275Z" fill="url(#paint10_linear_1462_5639)"/>
<path d="M560.472 358.25C579.49 375.518 599.043 390.337 619.141 401.948L661.257 339.683C641.598 330.872 622.715 320.099 604.472 306.63C590.33 323.26 575.171 340.532 560.472 358.25Z" fill="url(#paint11_linear_1462_5639)"/>
<path d="M489.258 281.358C476.765 300.075 465.005 322.997 453.61 355.716C483.047 360.06 513.365 367.5 543.937 378.901C549.317 372.036 554.86 365.159 560.472 358.25C535.858 335.986 512.196 309.776 489.258 281.358Z" fill="url(#paint12_linear_1462_5639)"/>
<path d="M378.364 301.503C376.526 299.776 374.589 298.086 372.72 296.427C367.166 314.938 361.68 333.481 356.055 351.061C379.391 349.88 403.992 350.25 429.445 352.721C413.361 336.155 395.861 318.379 378.364 301.503Z" fill="url(#paint13_linear_1462_5639)"/>
<path d="M906.505 -88C887.648 -82.1848 867.152 -74.953 845.613 -66.2302C837.042 -49.3809 826.384 -29.3258 815.204 -8.59976C843.377 -0.547905 868.047 4.22356 883.847 10.4861L939 -71.1508C927.001 -77.5624 916.044 -83.2285 906.505 -88Z" fill="url(#paint14_linear_1462_5639)"/>
<path d="M757.188 94.9329C748.989 108.874 742.43 119.387 738.853 124.158C733.189 131.763 723.276 142.349 712.096 154.725C732.369 164.716 753.312 171.053 774.479 172.171L824.042 98.8097C797.285 100.077 775.448 98.586 757.188 94.9329Z" fill="url(#paint15_linear_1462_5639)"/>
<path d="M654.425 235.513C652.04 241.179 648.835 247.069 645.109 253.182C662.027 264.141 680.809 273.684 701.38 280.394L735.962 229.25C714.87 220.751 695.044 210.164 676.337 198.235C667.617 210.388 659.791 222.987 654.425 235.513Z" fill="url(#paint16_linear_1462_5639)"/>
<path d="M252.337 276.285C254.201 268.084 255.766 259.659 257.629 250.414C261.952 229.017 271.566 185.701 287.292 142.982C275.964 144.995 264.859 147.008 253.902 147.902C232.065 187.342 186.303 265.027 185.185 267.562C207.768 277.627 230.202 277.925 252.337 276.285Z" fill="url(#paint17_linear_1462_5639)"/>
<path d="M185.215 267.522C184.47 267.149 153.912 301.593 117.168 312.777C124.1 319.263 130.882 325.227 137.888 330.744C157.49 311.584 174.855 291.603 185.215 267.522Z" fill="url(#paint18_linear_1462_5639)"/>
<path d="M137.8 330.736C122.148 346.094 105.006 360.93 88.6838 376.885C102.994 388.963 118.496 400.593 135.787 412C145.625 409.465 155.165 405.439 164.705 399.773C169.177 397.089 175.214 394.032 182.667 390.603C191.089 381.507 198.393 373.157 204.803 365.404C177.301 357.426 156.88 345.796 137.8 330.736Z" fill="url(#paint19_linear_1462_5639)"/>
<path d="M88.6838 376.885C74.2135 364.679 60.7379 351.9 47.6934 338.403C8.39429 361.2 0 387.166 0 387.166C22.6442 396.098 42.4482 403.182 60.266 408.02C69.0362 396.946 78.7226 386.747 88.6838 376.885Z" fill="url(#paint20_linear_1462_5639)"/>
<path d="M472.246 25.7575C457.787 25.9066 442.881 26.8012 427.9 28.5905C431.776 31.7218 435.577 34.8531 439.303 37.9844C449.365 33.0638 460.321 28.9633 472.246 25.7575Z" fill="url(#paint21_linear_1462_5639)"/>
</g>
<defs>
<linearGradient id="paint0_linear_1462_5639" x1="469.5" y1="-88" x2="469.5" y2="412" gradientUnits="userSpaceOnUse">
<stop stop-color="#0A0D11"/>
<stop offset="1" stop-color="#F3F4F6"/>
</linearGradient>
<linearGradient id="paint1_linear_1462_5639" x1="469.5" y1="-88" x2="469.5" y2="412" gradientUnits="userSpaceOnUse">
<stop stop-color="#0A0D11"/>
<stop offset="1" stop-color="#F3F4F6"/>
</linearGradient>
<linearGradient id="paint2_linear_1462_5639" x1="469.5" y1="-88" x2="469.5" y2="412" gradientUnits="userSpaceOnUse">
<stop stop-color="#0A0D11"/>
<stop offset="1" stop-color="#F3F4F6"/>
</linearGradient>
<linearGradient id="paint3_linear_1462_5639" x1="469.5" y1="-88" x2="469.5" y2="412" gradientUnits="userSpaceOnUse">
<stop stop-color="#0A0D11"/>
<stop offset="1" stop-color="#F3F4F6"/>
</linearGradient>
<linearGradient id="paint4_linear_1462_5639" x1="469.5" y1="-88" x2="469.5" y2="412" gradientUnits="userSpaceOnUse">
<stop stop-color="#0A0D11"/>
<stop offset="1" stop-color="#F3F4F6"/>
</linearGradient>
<linearGradient id="paint5_linear_1462_5639" x1="469.5" y1="-88" x2="469.5" y2="412" gradientUnits="userSpaceOnUse">
<stop stop-color="#0A0D11"/>
<stop offset="1" stop-color="#F3F4F6"/>
</linearGradient>
<linearGradient id="paint6_linear_1462_5639" x1="469.5" y1="-88" x2="469.5" y2="412" gradientUnits="userSpaceOnUse">
<stop stop-color="#0A0D11"/>
<stop offset="1" stop-color="#F3F4F6"/>
</linearGradient>
<linearGradient id="paint7_linear_1462_5639" x1="469.5" y1="-88" x2="469.5" y2="412" gradientUnits="userSpaceOnUse">
<stop stop-color="#0A0D11"/>
<stop offset="1" stop-color="#F3F4F6"/>
</linearGradient>
<linearGradient id="paint8_linear_1462_5639" x1="469.5" y1="-88" x2="469.5" y2="412" gradientUnits="userSpaceOnUse">
<stop stop-color="#0A0D11"/>
<stop offset="1" stop-color="#F3F4F6"/>
</linearGradient>
<linearGradient id="paint9_linear_1462_5639" x1="469.5" y1="-88" x2="469.5" y2="412" gradientUnits="userSpaceOnUse">
<stop stop-color="#0A0D11"/>
<stop offset="1" stop-color="#F3F4F6"/>
</linearGradient>
<linearGradient id="paint10_linear_1462_5639" x1="469.5" y1="-88" x2="469.5" y2="412" gradientUnits="userSpaceOnUse">
<stop stop-color="#0A0D11"/>
<stop offset="1" stop-color="#F3F4F6"/>
</linearGradient>
<linearGradient id="paint11_linear_1462_5639" x1="469.5" y1="-88" x2="469.5" y2="412" gradientUnits="userSpaceOnUse">
<stop stop-color="#0A0D11"/>
<stop offset="1" stop-color="#F3F4F6"/>
</linearGradient>
<linearGradient id="paint12_linear_1462_5639" x1="469.5" y1="-88" x2="469.5" y2="412" gradientUnits="userSpaceOnUse">
<stop stop-color="#0A0D11"/>
<stop offset="1" stop-color="#F3F4F6"/>
</linearGradient>
<linearGradient id="paint13_linear_1462_5639" x1="469.5" y1="-88" x2="469.5" y2="412" gradientUnits="userSpaceOnUse">
<stop stop-color="#0A0D11"/>
<stop offset="1" stop-color="#F3F4F6"/>
</linearGradient>
<linearGradient id="paint14_linear_1462_5639" x1="469.5" y1="-88" x2="469.5" y2="412" gradientUnits="userSpaceOnUse">
<stop stop-color="#0A0D11"/>
<stop offset="1" stop-color="#F3F4F6"/>
</linearGradient>
<linearGradient id="paint15_linear_1462_5639" x1="469.5" y1="-88" x2="469.5" y2="412" gradientUnits="userSpaceOnUse">
<stop stop-color="#0A0D11"/>
<stop offset="1" stop-color="#F3F4F6"/>
</linearGradient>
<linearGradient id="paint16_linear_1462_5639" x1="469.5" y1="-88" x2="469.5" y2="412" gradientUnits="userSpaceOnUse">
<stop stop-color="#0A0D11"/>
<stop offset="1" stop-color="#F3F4F6"/>
</linearGradient>
<linearGradient id="paint17_linear_1462_5639" x1="469.5" y1="-88" x2="469.5" y2="412" gradientUnits="userSpaceOnUse">
<stop stop-color="#0A0D11"/>
<stop offset="1" stop-color="#F3F4F6"/>
</linearGradient>
<linearGradient id="paint18_linear_1462_5639" x1="469.5" y1="-88" x2="469.5" y2="412" gradientUnits="userSpaceOnUse">
<stop stop-color="#0A0D11"/>
<stop offset="1" stop-color="#F3F4F6"/>
</linearGradient>
<linearGradient id="paint19_linear_1462_5639" x1="469.5" y1="-88" x2="469.5" y2="412" gradientUnits="userSpaceOnUse">
<stop stop-color="#0A0D11"/>
<stop offset="1" stop-color="#F3F4F6"/>
</linearGradient>
<linearGradient id="paint20_linear_1462_5639" x1="469.5" y1="-88" x2="469.5" y2="412" gradientUnits="userSpaceOnUse">
<stop stop-color="#0A0D11"/>
<stop offset="1" stop-color="#F3F4F6"/>
</linearGradient>
<linearGradient id="paint21_linear_1462_5639" x1="469.5" y1="-88" x2="469.5" y2="412" gradientUnits="userSpaceOnUse">
<stop stop-color="#0A0D11"/>
<stop offset="1" stop-color="#F3F4F6"/>
</linearGradient>
</defs>
</svg>
