<svg width="798" height="150" viewBox="0 0 798 150" fill="none" xmlns="http://www.w3.org/2000/svg">
<g clip-path="url(#clip0_234_6602)">
<path d="M246.75 14.49L256.03 0H177.19L114.32 91.84H197.22L208.54 74.16H152.25L165.76 52.42H210.21L219.8 35.59H176.22L189.33 14.49H246.75Z" fill="white"/>
<path d="M283.09 35.3711L266.68 61.2411L263.17 61.3711L266.36 35.3711H247.93L211.71 92.4811H229.18L245.55 66.6811L249.21 66.2711L245.16 92.4811H264.34L300.57 35.3711H283.09Z" fill="white"/>
<path d="M365.17 35.9414H313.5L307.64 45.3214H322.68L292.4 93.0514C292.4 92.6214 313.92 93.0514 313.92 93.0514L344.2 45.3214H359.31L365.17 35.9414Z" fill="white"/>
<path d="M797.32 36.7891H745.65L739.79 46.1691H754.83L724.55 93.8991C724.55 93.4691 746.07 93.8991 746.07 93.8991L776.35 46.1691H791.46L797.32 36.7891Z" fill="white"/>
<path d="M411.27 36.0781L397.37 57.7681H385.86L399.76 36.0781H377.78L341.83 92.9081H363.36L379.37 67.9081H390.88L374.86 92.9081H396.53L432.47 36.0781H411.27Z" fill="white"/>
<path d="M601.52 36.6484H580.32L543.92 93.4784H565.58L601.52 36.6484Z" fill="white"/>
<path d="M446.82 36.3711H468.41C468.41 36.3711 440.14 80.9811 439.29 82.6811C438.44 84.3811 437.3 87.2311 441.28 87.2311C445.26 87.2311 447.53 85.3811 449.38 83.1111C451.23 80.8411 479.64 36.3711 479.64 36.3711H500.52C500.52 36.3711 481.48 68.1911 473.24 79.9811C465 91.7711 451.5 94.3311 435.74 94.3311C419.98 94.3311 414.71 87.9411 418.55 81.2611C422.39 74.5811 446.82 36.3711 446.82 36.3711Z" fill="white"/>
<path d="M489.86 75.0083H509.46C509.46 75.0083 506.05 80.6883 504.91 82.6783C503.77 84.6683 503.21 87.2283 507.47 87.2283C511.73 87.2283 516.14 86.0883 519.4 80.2683C522.67 74.4483 521.1 72.5983 519.4 71.1783C517.7 69.7583 507.89 64.7883 505.19 62.9383C502.49 61.0883 500.79 56.6883 503.34 51.8583C505.9 47.0283 514.28 35.2383 539.57 35.2383C554.49 35.2383 562.72 37.9983 559.46 45.3283C558.32 47.8883 556.19 51.4383 556.19 51.4383H536.16C536.16 51.4383 538.29 48.0283 539.29 46.3283C540.29 44.6283 539.86 42.2083 536.87 42.2083C533.88 42.2083 529.06 43.4883 526.36 47.6083C523.66 51.7283 523.66 54.1383 525.79 55.7083C527.92 57.2683 536.73 61.9583 539.85 63.6683C542.98 65.3683 545.96 68.9283 542.83 75.4583C540.46 80.4083 534.16 94.3483 504.62 94.3483C488.28 94.3483 480.59 89.6883 486.15 80.7083C488 77.7283 489.84 75.0283 489.84 75.0283L489.86 75.0083Z" fill="white"/>
<path d="M658.92 75.4302H678.52C678.52 75.4302 675.11 81.1102 673.97 83.1002C672.83 85.0902 672.27 87.6502 676.53 87.6502C680.79 87.6502 685.2 86.5102 688.46 80.6902C691.73 74.8702 690.16 73.0202 688.46 71.6002C686.76 70.1802 676.95 65.2102 674.25 63.3602C671.55 61.5102 669.85 57.1102 672.4 52.2802C674.96 47.4502 683.34 35.6602 708.63 35.6602C723.55 35.6602 731.78 38.4202 728.52 45.7502C727.38 48.3102 725.25 51.8602 725.25 51.8602H705.22C705.22 51.8602 707.35 48.4502 708.35 46.7502C709.34 45.0502 708.92 42.6302 705.93 42.6302C702.94 42.6302 698.12 43.9102 695.42 48.0302C692.72 52.1502 692.72 54.5602 694.85 56.1302C696.98 57.6902 705.79 62.3802 708.91 64.0902C712.04 65.7902 715.02 69.3502 711.89 75.8802C709.52 80.8302 703.22 94.7702 673.68 94.7702C657.34 94.7702 649.65 90.1102 655.21 81.1302C657.06 78.1502 658.9 75.4502 658.9 75.4502L658.92 75.4302Z" fill="white"/>
<path d="M628.51 36.6484L580.64 93.7584H602.23L610.54 82.8684H623.17L617.71 93.7584H639.73L661.47 36.6484H628.51ZM626.84 75.5784H616.12L636.62 48.7284H640.31L626.84 75.5784Z" fill="white"/>
<path d="M102.74 53.0781C99.9502 55.6081 97.3202 58.0281 94.9902 60.4781C99.2302 66.2081 103.64 70.5881 108.26 73.9981C111.14 70.5981 113.73 67.3681 115.53 64.4281C110.24 61.0081 105.98 56.7981 102.74 53.0781Z" fill="#529BCA"/>
<path d="M94.9903 60.4814C92.4303 57.0314 89.9303 53.0914 87.4803 48.5814C86.0403 45.9314 84.6003 43.6514 83.1703 41.6914C82.0603 42.2014 81.0003 42.7414 80.0203 43.3614C77.7903 44.7614 75.8403 47.5814 74.0703 51.2314C74.5303 51.8014 74.9803 52.4014 75.4403 53.0514C79.3603 58.6714 83.4203 64.2614 87.6203 69.4714C89.5903 66.5114 91.6503 64.1414 93.8703 61.6814C94.2303 61.2814 94.6103 60.8714 94.9903 60.4714V60.4814Z" fill="#529BCA"/>
<path d="M110.19 46.2308C113.59 49.2508 117.22 52.0908 121.12 54.5908C123.15 51.7808 125.47 49.1208 127.54 46.8108C123.8 44.9708 120.17 42.4508 116.74 39.5508C114.6 41.9208 112.39 44.1408 110.19 46.2308Z" fill="white"/>
<path d="M116.75 39.5503C119.23 36.8003 121.63 33.8403 123.83 30.5703C121.67 28.7903 119.79 26.7403 117.82 24.5703C115.25 25.4503 112.55 25.9103 109.45 25.9403C108.62 27.2903 107.71 28.4803 106.73 29.5503C109.8 33.0703 113.16 36.5103 116.74 39.5403L116.75 39.5503Z" fill="white"/>
<path d="M106.74 29.5612C105.57 28.2212 104.44 26.8712 103.36 25.5212C102.21 25.3612 101.01 25.1712 99.74 24.9312C96.94 24.4012 93.29 23.9513 89.21 23.7812C92.35 27.3912 95.66 31.3113 99.24 35.2413C101.95 33.8113 104.52 32.0112 106.75 29.5612H106.74Z" fill="#529BCA"/>
<path d="M135.62 36.0992C138.44 31.3192 142.38 24.2492 146 17.5592C143.02 16.7092 139.82 15.6392 136.6 14.1992C134.64 15.2392 132.66 16.3492 130.68 17.5092C128.79 22.3692 126.45 26.6792 123.84 30.5592C126.89 33.0792 130.49 35.0592 135.63 36.0992H135.62Z" fill="white"/>
<path d="M102.74 53.0783C105.15 50.8983 107.67 48.6383 110.2 46.2283C106.26 42.7183 102.63 38.9683 99.2297 35.2383C96.6297 36.6083 93.8997 37.6583 91.2197 38.6183C94.5097 42.5083 97.1497 46.0383 99.0897 48.5883C100.11 49.9283 101.33 51.4583 102.74 53.0783Z" fill="#529BCA"/>
<path d="M62.19 43.9695C64.18 39.5895 66.92 35.1795 70.75 31.4895C67.26 30.1595 63.58 29.7095 59.57 29.5195C56.23 33.4295 53.54 39.0295 51.46 44.6995C54.99 44.0795 58.6 43.4695 62.2 43.9695H62.19Z" fill="#292664"/>
<path d="M62.1896 43.9688C59.7396 49.3488 58.3996 54.6787 57.5396 58.4987C56.7996 61.7487 56.1596 64.7888 55.3896 67.8988C59.2296 68.0288 63.0196 69.0087 66.7496 72.1787C69.0196 64.5387 71.3396 56.8787 74.0696 51.2487C70.1996 46.4587 66.1996 44.5287 62.1896 43.9787V43.9688Z" fill="#292664"/>
<path d="M83.1602 41.6884C85.6402 40.5484 88.4002 39.6284 91.2102 38.6084C87.7602 34.5284 83.5702 30.0584 78.6602 25.8984C75.5902 27.3984 72.9802 29.3184 70.7402 31.4784C75.0702 33.1384 79.1202 36.1584 83.1602 41.6884Z" fill="#529BCA"/>
<path d="M45.1902 68.5585C44.1302 73.2385 42.5102 77.5085 36.7002 84.5185C38.2802 84.9785 39.9902 85.3685 41.8602 85.6985C44.3402 84.9585 47.1002 84.2585 50.0902 83.6585C52.7102 77.6085 54.2002 72.6685 55.3902 67.8885C52.0302 67.7685 48.6302 68.2985 45.1902 68.5585Z" fill="#292664"/>
<path d="M100.38 83.2617C103.79 86.3417 107.29 89.0117 110.89 91.0817L118.43 79.9317C114.92 78.3617 111.53 76.4317 108.25 74.0117C105.74 76.9817 103.01 80.0917 100.38 83.2617Z" fill="#529BCA"/>
<path d="M87.6202 69.4805C85.3902 72.8305 83.2902 76.9405 81.2402 82.7905C86.5102 83.5805 91.9402 84.9205 97.4202 86.9505C98.3802 85.7105 99.3802 84.4805 100.39 83.2605C95.9802 79.2705 91.7302 74.5605 87.6302 69.4805H87.6202Z" fill="#529BCA"/>
<path d="M67.7595 73.0919C67.4195 72.7619 67.0795 72.4619 66.7395 72.1719C65.7495 75.4919 64.7695 78.8019 63.7695 81.9519C67.9495 81.7419 72.3495 81.8019 76.8995 82.2419C74.0295 79.2719 70.8895 76.1019 67.7495 73.0819L67.7595 73.0919Z" fill="#292664"/>
<path d="M162.34 3.35156C158.96 4.39156 155.3 5.69156 151.44 7.25156C149.89 10.2616 148 13.8516 145.99 17.5716C151.04 19.0116 155.46 19.8716 158.28 20.9816L168.16 6.37156C166.02 5.22156 164.04 4.21156 162.34 3.35156Z" fill="white"/>
<path d="M135.62 36.1016C134.15 38.6016 132.98 40.4816 132.33 41.3416C131.31 42.6916 129.55 44.5916 127.55 46.8116C131.18 48.5916 134.92 49.7216 138.71 49.9316L147.59 36.8016C142.8 37.0316 138.9 36.7616 135.62 36.1016Z" fill="white"/>
<path d="M117.2 61.2598C116.77 62.2698 116.2 63.3298 115.53 64.4298C118.56 66.3898 121.92 68.0898 125.62 69.2998L131.81 60.1498C128.03 58.6198 124.48 56.7298 121.13 54.5898C119.56 56.7598 118.17 59.0098 117.21 61.2598H117.2Z" fill="white"/>
<path d="M45.1897 68.5614C45.5197 67.0914 45.7997 65.5814 46.1397 63.9214C46.9197 60.0914 48.6397 52.3414 51.4597 44.6914C49.4397 45.0514 47.4397 45.4114 45.4797 45.5814C41.5597 52.6314 33.3697 66.5414 33.1797 66.9914C37.2197 68.8014 41.2297 68.8614 45.1997 68.5614H45.1897Z" fill="#292664"/>
<path d="M33.1702 66.9887C33.0302 66.9287 27.5602 73.0887 20.9902 75.0887C22.2302 76.2487 23.4402 77.3187 24.6902 78.3087C28.2102 74.8687 31.3102 71.2887 33.1702 66.9887Z" fill="#D12026"/>
<path d="M24.6896 78.3203C21.8796 81.0603 18.8096 83.7203 15.8896 86.5903C18.4596 88.7603 21.2296 90.8403 24.3296 92.8803C26.0796 92.4203 27.7896 91.7003 29.5096 90.6803C30.2996 90.2103 31.3796 89.6503 32.7096 89.0503C34.2196 87.4203 35.5396 85.9203 36.6896 84.5303C31.7496 83.0903 28.0996 81.0203 24.6796 78.3203H24.6896Z" fill="#D12026"/>
<path d="M15.8902 86.5792C13.2902 84.3892 10.8902 82.1092 8.53023 79.6992C1.49023 83.7792 -0.00976562 88.4292 -0.00976562 88.4292C4.04023 90.0292 7.59023 91.2892 10.7802 92.1592C12.3602 90.1792 14.0902 88.3392 15.8802 86.5792H15.8902Z" fill="#D12026"/>
<path d="M84.5799 23.7109C81.9999 23.7409 79.3199 23.9009 76.6299 24.2209C77.3199 24.7709 77.9999 25.3309 78.6699 25.9009C80.4799 25.0109 82.4399 24.2809 84.5799 23.7109Z" fill="#529BCA"/>
<path d="M98.9805 148.672C99.3405 148.532 112.9 148.672 112.9 148.672C112.9 148.672 114.7 146.232 117.14 142.922H122.48C120.74 146.262 119.43 148.742 119.43 148.742H132.57L145.43 116.852H126.11L98.9805 148.672ZM131.37 125.512C131.26 125.972 128.26 131.812 125.3 137.512H121.13C125.65 131.392 130.4 124.982 130.66 124.722C131.16 124.222 131.58 124.582 131.37 125.502V125.512Z" fill="white"/>
<path d="M327.57 116.43C315.14 116.43 309.88 121.4 306.54 126.37C303.2 131.34 297.81 140.92 297.54 141.42C295.05 145.97 296.83 149.45 308.34 149.45C320.77 149.45 326.03 144.48 329.37 139.51C332.71 134.54 338.1 124.96 338.37 124.46C340.86 119.91 339.08 116.43 327.57 116.43ZM325.94 123.75C325.8 123.95 314.02 142.36 313.74 142.7C312.53 144.19 311.54 144.4 310.54 144.4C309.54 144.4 309.33 143.05 309.97 142.13C310.11 141.93 321.89 123.52 322.17 123.18C323.38 121.69 324.37 121.48 325.37 121.48C326.37 121.48 326.58 122.83 325.94 123.75Z" fill="white"/>
<path d="M426.66 116.43C414.23 116.43 408.97 121.4 405.63 126.37C402.29 131.34 396.9 140.92 396.63 141.42C394.14 145.97 396.45 149.45 403.16 149.45C408.96 149.45 411.3 148.79 414.5 146.65L412.97 149.27H422.56C422.56 149.27 431.63 134.5 433.23 131.8H417.34L414.57 136.7H416.71C414.62 139.95 412.93 142.57 412.83 142.7C411.62 144.19 410.63 144.4 409.63 144.4C408.63 144.4 408.42 143.05 409.06 142.13C409.2 141.93 420.98 123.52 421.26 123.18C422.47 121.69 423.46 121.48 424.46 121.48C425.46 121.48 425.67 122.83 425.03 123.75C424.98 123.82 423.46 126.2 421.5 129.24H434.72C436.22 126.66 437.33 124.68 437.45 124.46C439.94 119.91 438.16 116.43 426.65 116.43H426.66Z" fill="white"/>
<path d="M187.91 142.702C186.7 144.192 185.71 144.402 184.71 144.402C183.71 144.402 183.5 143.052 184.14 142.132C184.78 141.212 200.19 116.992 200.19 116.992C200.19 116.992 186.91 116.782 186.91 116.992C186.91 116.992 174.2 136.882 171.71 141.422C169.22 145.972 171 149.452 182.51 149.452C194.94 149.452 200.2 144.482 203.54 139.512C206.88 134.542 217.46 117.142 217.46 117.142H204.25C204.25 117.142 189.12 141.222 187.91 142.712V142.702Z" fill="white"/>
<path d="M245.94 123.169H253.73L237.28 149.159H250.63L267.08 123.169H275.35L279.19 117.059H249.78L245.94 123.169Z" fill="white"/>
<path d="M503.64 117.41H482.01L462.09 149.27H474.77L484.13 134.67H486.38C488.4 134.67 487.77 136.16 487.34 136.91C486.91 137.66 479.46 149.16 479.46 149.16H491.82C491.82 149.16 498.64 138.93 499.81 136.69C500.98 134.45 497.57 132.64 495.23 132.43C500.24 131.9 502.26 131.26 503.97 129.66C505.67 128.06 507.59 124.65 508.23 122.95C508.87 121.25 508.66 117.41 503.65 117.41H503.64ZM495.01 124.87C494.58 125.72 493.41 127.43 492.77 128.28C492.13 129.13 490.96 130.2 489.36 130.2H487L491.92 122.53H493.84C495.12 122.53 495.44 124.02 495.01 124.87Z" fill="white"/>
<path d="M564.1 116.43C551.67 116.43 546.41 121.4 543.07 126.37C539.73 131.34 534.34 140.92 534.07 141.42C531.58 145.97 533.36 149.45 544.87 149.45C557.3 149.45 562.56 144.48 565.9 139.51C569.24 134.54 574.63 124.96 574.9 124.46C577.39 119.91 575.61 116.43 564.1 116.43ZM562.47 123.75C562.33 123.95 550.55 142.36 550.27 142.7C549.06 144.19 548.07 144.4 547.07 144.4C546.07 144.4 545.86 143.05 546.5 142.13C546.64 141.93 558.42 123.52 558.7 123.18C559.91 121.69 560.9 121.48 561.9 121.48C562.9 121.48 563.11 122.83 562.47 123.75Z" fill="white"/>
<path d="M618.78 142.702C617.57 144.192 616.58 144.402 615.58 144.402C614.58 144.402 614.37 143.052 615.01 142.132C615.65 141.212 631.06 116.992 631.06 116.992C631.06 116.992 617.78 116.782 617.78 116.992C617.78 116.992 605.07 136.882 602.58 141.422C600.09 145.972 601.87 149.452 613.38 149.452C625.81 149.452 631.07 144.482 634.41 139.512C637.75 134.542 648.33 117.142 648.33 117.142H635.12C635.12 117.142 619.99 141.222 618.78 142.712V142.702Z" fill="white"/>
<path d="M707.68 117.41H686.901L666.98 149.27H679.66L687.85 136.59H692.341C701.501 136.59 704.49 134.35 707.47 130.52C708.9 128.68 711.63 124.66 712.26 122.96C712.9 121.26 712.69 117.42 707.68 117.42V117.41ZM699.901 124.87C699.471 125.72 697.77 128.28 697.13 129.13C696.49 129.98 695.32 131.05 693.72 131.05H691.36L696.81 122.53H698.73C700.01 122.53 700.331 124.02 699.901 124.87Z" fill="white"/>
</g>
<defs>
<clipPath id="clip0_234_6602">
<rect width="797.32" height="149.45" fill="white"/>
</clipPath>
</defs>
</svg>
